Coordinates
version=1
nRows=11
nColumns=63
inDegrees=yes

Units are S.I. units (second, meters, Newtons, ...)
If the header above contains a line with 'inDegrees', this indicates whether rotational values are in degrees (yes) or radians (no).

endheader
time	pelvis_tilt	pelvis_list	pelvis_rotation	pelvis_tx	pelvis_ty	pelvis_tz	hip_flexion_r	hip_adduction_r	hip_rotation_r	knee_angle_r	knee_angle_r_beta	ankle_angle_r	subtalar_angle_r	mtp_angle_r	hip_flexion_l	hip_adduction_l	hip_rotation_l	knee_angle_l	knee_angle_l_beta	ankle_angle_l	subtalar_angle_l	mtp_angle_l	L5_S1_Flex_Ext	L5_S1_Lat_Bending	L5_S1_axial_rotation	L4_L5_Flex_Ext	L4_L5_Lat_Bending	L4_L5_axial_rotation	L3_L4_Flex_Ext	L3_L4_Lat_Bending	L3_L4_axial_rotation	L2_L3_Flex_Ext	L2_L3_Lat_Bending	L2_L3_axial_rotation	L1_L2_Flex_Ext	L1_L2_Lat_Bending	L1_L2_axial_rotation	L1_T12_Flex_Ext	L1_T12_Lat_Bending	L1_T12_axial_rotation	Abs_r3	Abs_r2	Abs_r1	Abs_t1	Abs_t2	neck_flexion	neck_bending	neck_rotation	arm_flex_r	arm_add_r	arm_rot_r	elbow_flex_r	pro_sup_r	wrist_flex_r	wrist_dev_r	arm_flex_l	arm_add_l	arm_rot_l	elbow_flex_l	pro_sup_l	wrist_flex_l	wrist_dev_l
      1.31666667	     -1.11564821	     -4.02692050	     87.87731047	      0.22484379	      0.81972029	      0.65885858	      1.15899760	     -1.74985540	    -14.23553947	     11.84100980	      0.20666461	     31.14534775	     16.98101052	      0.00000000	      1.56726857	     -0.08539373	      7.55833246	     13.05939923	      0.22792951	     19.39627276	    -10.97470252	      0.00000000	      0.02627861	     -0.04746315	     -0.05679473	      0.04880201	     -0.06312599	     -0.06034440	      0.04317313	     -0.11540190	     -0.06034440	      0.03003383	     -0.11540190	     -0.04969539	      0.02440232	     -0.09678685	     -0.04614572	      0.01501560	     -0.07352042	     -0.04259605	      0.18770551	     -0.53691264	     -0.31587524	      0.00000000	      0.00000000	      2.74705470	      2.13627277	     -1.91229328	      2.53567158	    -13.01779010	     44.38120915	     41.14809365	     88.61880354	     -6.87640062	     10.77800544	     -1.78469153	    -12.55950925	     42.21695111	     20.85860837	     79.48248706	     -8.80485703	     -8.56428684
      1.33333333	     -1.21343493	     -3.96855279	     88.03734825	      0.22536768	      0.82017141	      0.65767268	      1.07329775	     -1.75773033	    -13.99443298	     11.74078192	      0.20491530	     31.39757334	     16.72814145	      0.00000000	      1.40914067	     -0.07343915	      7.20056888	     12.80048183	      0.22341055	     19.78450001	    -10.36437926	      0.00000000	      0.02950854	     -0.05446419	     -0.01143392	      0.05480032	     -0.07243738	     -0.01214854	      0.04847959	     -0.13242424	     -0.01214854	      0.03372532	     -0.13242424	     -0.01000468	      0.02740163	     -0.11106339	     -0.00929006	      0.01686118	     -0.08436504	     -0.00857544	      0.21077658	     -0.61610986	     -0.06359201	      0.00000000	      0.00000000	      2.63580714	      2.21585484	     -1.36417899	      2.43660103	    -13.05967841	     44.70007265	     41.43806127	     88.81930324	     -7.88100945	     10.77118744	     -3.44411824	    -12.37055270	     34.46077571	     22.68885457	     85.80497354	     -7.60931748	     -6.62816120
      1.35000000	     -1.21132369	     -3.90249684	     88.31441124	      0.22541048	      0.82086080	      0.65682187	      1.00497070	     -1.70538193	    -14.10407544	     11.73760457	      0.20485985	     31.53904557	     16.64520961	      0.00000000	      1.31878282	     -0.09422280	      7.34535909	     12.67581457	      0.22123470	     20.04871717	    -10.32641768	      0.00000000	      0.03086449	     -0.04444489	      0.05933872	      0.05731845	     -0.05911171	      0.06304739	      0.05070727	     -0.10806331	      0.06304739	      0.03527503	     -0.10806331	      0.05192138	      0.02866077	     -0.09063202	      0.04821271	      0.01763597	     -0.06884514	      0.04450404	      0.22046197	     -0.50276951	      0.33002417	      0.00000000	      0.00000000	      2.51116676	      2.14935141	     -1.04281759	      2.46950896	    -13.23535865	     45.00120164	     41.56939192	     89.01652631	     -8.11465244	     10.54855276	     -3.68049340	    -12.52360478	     34.54777244	     23.26543128	     86.08069970	     -7.62336485	     -6.97505863
      1.36666667	     -1.20776398	     -3.77601373	     88.66646841	      0.22518026	      0.82185929	      0.65605898	      0.87146584	     -1.67252610	    -14.12855369	     11.76336799	      0.20530950	     31.41579608	     16.52909445	      0.00000000	      1.20647533	     -0.11245557	      7.37420554	     12.63436794	      0.22051132	     20.24449860	    -10.10738094	      0.00000000	      0.02926446	     -0.02786790	     -0.00574887	      0.05434702	     -0.03706431	     -0.00610818	      0.04807858	     -0.06775802	     -0.00610818	      0.03344635	     -0.06775802	     -0.00503027	      0.02717498	     -0.05682823	     -0.00467096	      0.01672171	     -0.04316738	     -0.00431166	      0.20903310	     -0.31524731	     -0.03197352	      0.00000000	      0.00000000	      2.40767555	      2.65591857	      1.06463536	      3.84975339	    -13.63352824	     49.94239955	     40.68942311	     89.13943439	    -12.23840793	      7.84017554	     -4.17111152	    -12.54310404	     34.12648418	     23.88114445	     87.27492144	     -8.63888721	     -7.93553291
      1.38333333	     -1.37080172	     -3.62361406	     89.09040933	      0.22563318	      0.82301449	      0.65594006	      0.74157431	     -1.75572347	    -14.20484382	     11.84961120	      0.20681473	     31.41330746	     16.28795434	      0.00000000	      1.12526767	     -0.01889322	      7.36619985	     12.60299381	      0.21996374	     20.21519562	     -9.69462329	      0.00000000	      0.02491215	     -0.05271642	     -0.13696481	      0.04626435	     -0.07011284	     -0.14552512	      0.04092817	     -0.12817471	     -0.14552512	      0.02847209	     -0.12817471	     -0.11984421	      0.02313342	     -0.10749933	     -0.11128391	      0.01423480	     -0.08165774	     -0.10272361	      0.17794498	     -0.59633874	     -0.76175721	      0.00000000	      0.00000000	      2.28486801	      2.95127908	      2.18185126	      6.49631814	    -13.37596850	     58.58370881	     38.16011373	     89.14672818	    -18.42023493	      3.67116846	     -4.81208611	    -12.95539745	     33.24211928	     25.03997712	     87.68167194	     -8.78297339	     -8.47826394
      1.40000000	     -1.55646244	     -3.47182918	     89.50661864	      0.22583187	      0.82405469	      0.65574223	      0.61558464	     -1.89489066	    -14.31793603	     12.00166963	      0.20946865	     31.19915511	     16.02320051	      0.00000000	      1.05931163	      0.13723347	      7.54527757	     12.62669316	      0.22037737	     20.09175199	     -9.52378486	      0.00000000	      0.02797578	     -0.07458740	     -0.26506878	      0.05195383	     -0.09920124	     -0.28163558	      0.04596141	     -0.18135181	     -0.28163558	      0.03197352	     -0.18135181	     -0.23193518	      0.02597831	     -0.15209863	     -0.21536839	      0.01598536	     -0.11553588	     -0.19880159	      0.19982822	     -0.84374760	     -1.47423305	      0.00000000	      0.00000000	      2.36647112	      3.25027885	      3.70839899	      8.98438398	    -12.56801519	     67.72139872	     35.06589644	     89.11944724	    -25.38456288	     -0.39508854	     -5.37219092	    -13.27760970	     32.69109992	     26.04642936	     88.05296713	     -9.15623726	     -9.04080570
      1.41666667	     -1.78876012	     -3.30624383	     90.07793544	      0.22612561	      0.82507728	      0.65582781	      0.48557633	     -2.06896137	    -14.50503654	     12.22943630	      0.21344393	     30.95276762	     15.59667496	      0.00000000	      0.98962381	      0.35682906	      8.17720468	     12.62415772	      0.22033312	     19.72597518	     -9.79447700	      0.00000000	      0.02982053	     -0.10441966	     -0.46108233	      0.05537971	     -0.13887815	     -0.48989998	      0.04899215	     -0.25388596	     -0.48989998	      0.03408189	     -0.25388596	     -0.40344704	      0.02769135	     -0.21293257	     -0.37462940	      0.01703945	     -0.16174605	     -0.34581175	      0.21300509	     -1.18121608	     -2.56440162	      0.00000000	      0.00000000	      2.40165279	      3.56411594	      5.59425147	     11.58516650	    -10.99059750	     77.83089156	     31.31507463	     89.03686016	    -31.05679269	     -3.24815427	     -6.03358642	    -13.62890728	     31.92392037	     27.09108556	     88.30918284	     -9.51256509	     -9.27085993
      1.43333333	     -2.09589103	     -3.22485871	     90.78253997	      0.22649679	      0.82596748	      0.65628474	      0.46067883	     -2.31371797	    -14.79556194	     12.51414622	      0.21841305	     30.72923894	     15.06638443	      0.00000000	      1.05678055	      0.65630831	      9.01293642	     12.64804856	      0.22075009	     19.16808157	    -10.24467884	      0.00000000	      0.03971153	     -0.14455415	     -0.66004562	      0.07374829	     -0.19225702	     -0.70129847	      0.06524208	     -0.35146895	     -0.70129847	      0.04538631	     -0.35146895	     -0.57753992	      0.03687613	     -0.29477482	     -0.53628707	      0.02269117	     -0.22391437	     -0.49503422	      0.28365552	     -1.63522543	     -3.67097573	      0.00000000	      0.00000000	      2.42080091	      3.77635060	      7.37884086	     13.78055018	     -8.54660817	     88.86616622	     26.60418158	     88.80482231	    -36.58431234	     -5.57747981	     -6.64823683	    -14.08143739	     31.11118506	     28.26190703	     88.51681006	     -9.32523562	     -8.70249392
      1.45000000	     -2.45420922	     -3.17410373	     91.73966656	      0.22694363	      0.82688207	      0.65705258	      0.44429430	     -2.59135503	    -15.33682954	     12.78337587	      0.22311200	     30.55703679	     14.51499380	      0.00000000	      1.23252623	      0.98315106	      9.94283730	     12.76178321	      0.22273514	     18.57192444	    -10.53925794	      0.00000000	      0.04555134	     -0.19142512	     -0.88068401	      0.08459340	     -0.25459541	     -0.93572676	      0.07483630	     -0.46543104	     -0.93572676	      0.05206063	     -0.46543104	     -0.77059851	      0.04229898	     -0.39035411	     -0.71555576	      0.02602804	     -0.29651752	     -0.66051301	      0.32536868	     -2.16543927	     -4.89810028	      0.00000000	      0.00000000	      2.41256103	      3.80906908	      9.10273234	     15.37680686	     -5.19613119	    101.72598605	     20.82829191	     88.11635771	    -41.49272792	     -6.32319500	     -7.19954062	    -14.51450794	     30.17076192	     29.31204251	     88.61688782	     -9.28506130	     -8.09189352
      1.46666667	     -2.50615253	     -3.20951877	     92.69357957	      0.22637728	      0.82744088	      0.65816684	      0.61149887	     -2.64740644	    -15.93663897	     13.17641824	      0.22997188	     30.45157923	     14.03859214	      0.00000000	      1.63166821	      1.04218219	     10.50357070	     13.12591321	      0.22909040	     18.37460320	    -10.38280497	      0.00000000	      0.05561563	     -0.19225273	     -1.01489717	      0.10328378	     -0.25569613	     -1.07832825	      0.09137092	     -0.46744329	     -1.07832825	      0.06356310	     -0.46744329	     -0.88803503	      0.05164467	     -0.39204177	     -0.82460395	      0.03177877	     -0.29779948	     -0.76117288	      0.39725687	     -2.17480134	     -5.64455361	      0.00000000	      0.00000000	      2.50445104	      3.50768543	     10.07920321	     15.60599097	     -4.53636181	    103.53072133	     19.93482479	     88.26312438	    -40.38972780	     -6.50671618	     -7.19485108	    -14.66186971	     30.25579198	     29.85563775	     88.60769769	     -9.49753363	     -7.66262530
      1.48333333	     -2.98326941	     -3.35495142	     93.73860250	      0.22738756	      0.82859874	      0.65855685	      0.63344874	     -3.01868968	    -16.88734649	     13.17228148	      0.22989968	     30.29115225	     13.85486730	      0.00000000	      1.92734181	      1.41986705	     11.01382753	     13.12779273	      0.22912321	     17.70958684	     -9.96358459	      0.00000000	      0.07904338	     -0.28042510	     -1.01650583	      0.14679146	     -0.37296538	     -1.08003745	      0.12986037	     -0.68182558	     -1.08003745	      0.09033868	     -0.68182558	     -0.88944261	      0.07339968	     -0.57184286	     -0.82591099	      0.04516539	     -0.43437848	     -0.76237938	      0.56459895	     -3.17222478	     -5.65350050	      0.00000000	      0.00000000	      2.40979601	      4.10089909	      9.41010993	     13.02560687	      2.65311449	    182.15282001	      0.32792768	     25.97870473	    -39.21083609	     -8.30785218	     -7.04277599	    -15.27126884	     30.12753291	     30.52174089	     88.67729008	     -9.39207694	     -7.30053995
